<?xml version="1.0" encoding="UTF-8" standalone="no"?>
<!-- Created with Inkscape (http://www.inkscape.org/) -->

<svg
   width="512"
   height="512"
   viewBox="0 0 135.46666 135.46666"
   version="1.1"
   id="svg5"
   sodipodi:docname="messenger_logo.svg"
   inkscape:version="1.3 (1:1.3+202307231459+0e150ed6c4)"
   inkscape:export-filename="messenger_logo.png"
   inkscape:export-xdpi="96"
   inkscape:export-ydpi="96"
   xmlns:inkscape="http://www.inkscape.org/namespaces/inkscape"
   xmlns:sodipodi="http://sodipodi.sourceforge.net/DTD/sodipodi-0.dtd"
   xmlns="http://www.w3.org/2000/svg"
   xmlns:svg="http://www.w3.org/2000/svg">
  <sodipodi:namedview
     id="namedview7"
     pagecolor="#ffffff"
     bordercolor="#000000"
     borderopacity="0.25"
     inkscape:showpageshadow="2"
     inkscape:pageopacity="0.0"
     inkscape:pagecheckerboard="0"
     inkscape:deskcolor="#d1d1d1"
     inkscape:document-units="px"
     showgrid="false"
     inkscape:zoom="0.70710678"
     inkscape:cx="385.3732"
     inkscape:cy="301.9346"
     inkscape:window-width="1366"
     inkscape:window-height="731"
     inkscape:window-x="1366"
     inkscape:window-y="0"
     inkscape:window-maximized="1"
     inkscape:current-layer="layer1">
    <inkscape:grid
       id="grid1"
       units="mm"
       originx="0"
       originy="0"
       spacingx="0.99999996"
       spacingy="0.99999995"
       empcolor="#0099e5"
       empopacity="0.30196078"
       color="#0099e5"
       opacity="0.14901961"
       empspacing="5"
       dotted="false"
       gridanglex="30"
       gridanglez="30"
       visible="false" />
  </sodipodi:namedview>
  <defs
     id="defs2" />
  <g
     inkscape:groupmode="layer"
     id="layer1"
     inkscape:label="Background">
    <rect
       style="fill:#888888;fill-opacity:1;stroke:none;stroke-width:0;stroke-dasharray:none"
       id="rect1"
       width="135.46666"
       height="135.46666"
       x="0"
       y="0"
       ry="35.851036" />
  </g>
  <g
     inkscape:groupmode="layer"
     id="layer2"
     inkscape:label="Send"
     transform="translate(-37.266459,-80.766649)">
    <path
       id="rect961"
       style="font-variation-settings:normal;opacity:1;fill:#000000;fill-opacity:1;fill-rule:evenodd;stroke:none;stroke-width:0;stroke-linecap:butt;stroke-linejoin:miter;stroke-miterlimit:4;stroke-dasharray:none;stroke-dashoffset:0;stroke-opacity:1;stop-color:#000000;stop-opacity:1"
       d="m 90.693208,157.23123 c -12.888381,0 -23.264249,10.32537 -23.264249,23.15103 0,12.82568 10.375868,23.15105 23.264249,23.15105 h 46.075672 c 12.88838,0 23.26424,-10.32537 23.26424,-23.15105 0,-12.82566 -10.37586,-23.15103 -23.26424,-23.15103 z M 121.71619,171.272 a 0.43959287,1.3950747 75.777028 0 1 0.40728,0.0229 c 1.36125,0.26645 2.56175,0.73269 3.62797,1.35408 1.05249,0.6134 1.94853,1.36324 2.72937,2.18274 0.77494,0.81331 1.43866,1.69767 2.02979,2.58759 0.58975,0.88786 1.12201,1.80436 1.61895,2.67165 0.50934,0.88891 0.97465,1.71369 1.46465,2.49254 0.49216,0.78233 0.98314,1.47475 1.51149,2.06479 0.53548,0.59802 1.10178,1.08182 1.73173,1.43946 0.6446,0.36594 1.37709,0.61149 2.24161,0.69707 l -0.0509,-0.002 c 0.49444,0.0395 0.99197,-0.0185 1.4894,-0.15534 0.52127,-0.14351 1.03367,-0.37157 1.52654,-0.65438 1.08528,-0.62278 2.05568,-1.49836 2.80499,-2.27207 0.91584,-0.94565 1.66893,-1.91832 2.0205,-2.37813 0.2688,-0.35158 0.52521,-0.69844 0.58771,-0.78419 0.20962,-0.28768 0.22612,-0.28986 0.23613,-0.28473 0.005,0.003 0.0256,0.0235 -0.11319,0.35337 -0.0609,0.14466 -0.19092,0.45298 -0.4157,0.89863 -0.28037,0.55587 -0.84309,1.59171 -1.67689,2.72752 -0.65448,0.89154 -1.57272,1.97514 -2.70018,2.83624 -0.516,0.3941 -1.09654,0.75784 -1.73527,1.03108 -0.61282,0.26215 -1.28877,0.44577 -2.02183,0.48671 a 0.07941659,5.2495515e-4 1.1414639 0 1 -0.0504,-0.002 c -1.11239,-0.0216 -2.12656,-0.2547 -3.0628,-0.6799 -0.90922,-0.41291 -1.70981,-0.99096 -2.43663,-1.67665 -0.7106,-0.6704 -1.34732,-1.43989 -1.94576,-2.25006 -0.58932,-0.79783 -1.15031,-1.64692 -1.70564,-2.47978 -0.55676,-0.83503 -1.10414,-1.64822 -1.68929,-2.41817 -0.58336,-0.76763 -1.18587,-1.46773 -1.84183,-2.078 -0.65668,-0.61094 -1.35673,-1.12232 -2.13017,-1.51867 -0.71311,-0.36543 -1.50227,-0.6401 -2.39682,-0.80048 -0.64614,0.0835 -1.17944,0.28374 -1.64638,0.55757 -0.52509,0.30791 -1.01263,0.73662 -1.49028,1.28104 -0.49582,0.56513 -0.96526,1.23668 -1.4412,1.98953 -0.49211,0.77846 -0.98203,1.62966 -1.49337,2.48726 -0.54361,0.91174 -1.10347,1.81761 -1.73085,2.69233 -0.0965,0.13464 -0.19426,0.2682 -0.29363,0.40046 -0.55434,0.73784 -1.19235,1.4872 -1.93559,2.18274 -0.84038,0.78645 -1.82797,1.51507 -2.99736,2.08459 -1.13486,0.55271 -2.42001,0.94632 -3.88666,1.11777 a 0.4351606,1.4131266 71.36985 0 1 -0.37809,0.0101 c -1.20261,-0.11346 -2.26846,-0.46762 -3.21095,-1.02272 -0.91776,-0.54054 -1.671028,-1.24299 -2.311484,-2.01463 -0.630248,-0.75934 -1.165299,-1.60269 -1.647262,-2.45249 -0.476958,-0.84099 -0.929259,-1.73873 -1.366898,-2.58805 -0.446902,-0.86727 -0.888178,-1.70409 -1.374415,-2.50001 -0.488698,-0.79993 -1.010665,-1.53794 -1.602603,-2.19286 -0.59936,-0.66311 -1.270288,-1.24047 -2.048358,-1.70656 -0.794183,-0.47578 -1.711496,-0.84247 -2.793938,-1.06101 -0.420079,-0.022 -0.845756,0.0283 -1.275801,0.14126 -0.50301,0.1321 -1.001163,0.34729 -1.484087,0.61785 -1.060786,0.59432 -2.009049,1.43073 -2.762099,2.19241 -0.902991,0.91335 -1.65644,1.86192 -2.009443,2.31123 -0.269645,0.34323 -0.521545,0.6739 -0.588151,0.76308 -0.208527,0.2792 -0.22346,0.28373 -0.233492,0.27857 -0.0056,-0.003 -0.02236,-0.0236 0.110555,-0.34765 0.05968,-0.1455 0.18362,-0.44963 0.398881,-0.88806 0.272661,-0.55535 0.815192,-1.5756 1.625598,-2.69849 0.638912,-0.88527 1.53582,-1.95977 2.641815,-2.81643 0.5081,-0.39355 1.081153,-0.75769 1.713597,-1.03239 0.607107,-0.2637 1.281714,-0.45053 2.013423,-0.49376 a 0.25247622,0.01815601 8.7175405 0 1 0.158757,0.0128 c 1.312464,0.16899 2.489837,0.52798 3.555439,1.05484 1.040622,0.51452 1.946261,1.17485 2.752814,1.93366 0.791913,0.74504 1.477332,1.57463 2.095233,2.43181 0.610817,0.84735 1.158756,1.72603 1.67379,2.57042 0.522188,0.85611 0.993039,1.64728 1.485849,2.39001 0.49169,0.74101 0.96738,1.37453 1.46553,1.89581 0.50001,0.52322 0.99591,0.9049 1.5146,1.1653 0.46148,0.23168 0.97081,0.38257 1.56279,0.43567 0.98639,-0.16612 1.81052,-0.46292 2.518,-0.83438 0.77305,-0.40588 1.4435,-0.92076 2.04703,-1.50634 0.53772,-0.52174 1.02733,-1.10449 1.48718,-1.72154 0.082,-0.11004 0.16373,-0.22244 0.24544,-0.33665 0.53824,-0.75242 1.0386,-1.5462 1.58535,-2.4349 0.49252,-0.80057 1.04976,-1.72404 1.61233,-2.56294 0.55077,-0.82133 1.17291,-1.66499 1.89136,-2.41905 0.70099,-0.73575 1.52195,-1.41667 2.50473,-1.92222 0.97025,-0.49907 2.05906,-0.80664 3.28747,-0.85813 z"
       inkscape:label="rect961" />
  </g>
  <g
     inkscape:groupmode="layer"
     id="layer3"
     inkscape:label="Receive"
     transform="translate(-37.646256,-80.766645)"
     style="stroke:none;stroke-width:0;stroke-dasharray:none">
    <path
       id="rect961-5"
       style="font-variation-settings:normal;fill:#ffffff;fill-opacity:1;fill-rule:evenodd;stroke:none;stroke-width:0;stroke-linecap:butt;stroke-linejoin:miter;stroke-miterlimit:4;stroke-dasharray:none;stroke-dashoffset:0;stroke-opacity:1;stop-color:#000000"
       d="m 73.610507,93.466645 c -12.888382,0 -23.264251,10.325375 -23.264251,23.151045 0,12.82566 10.375869,23.15103 23.264251,23.15103 h 46.075673 c 12.88838,0 23.26424,-10.32537 23.26424,-23.15103 0,-12.82567 -10.37586,-23.151045 -23.26424,-23.151045 z m 15.052689,14.041215 c 1.228404,0.0516 2.317659,0.35905 3.287897,0.85813 0.982782,0.50553 1.80329,1.18646 2.504287,1.92221 0.718452,0.75406 1.340603,1.59773 1.891372,2.41905 0.562562,0.83891 1.120245,1.76193 1.612771,2.56252 0.546738,0.88869 1.047095,1.68291 1.585349,2.43532 0.08175,0.11422 0.163429,0.22661 0.245436,0.33665 0.459852,0.61706 0.949462,1.1998 1.487182,1.72155 0.60352,0.58558 1.27399,1.10047 2.04703,1.50635 0.70748,0.37145 1.53162,0.66781 2.518,0.83392 0.59199,-0.053 1.10131,-0.20398 1.56278,-0.43566 0.51872,-0.26042 1.0146,-0.64164 1.51461,-1.16487 0.49816,-0.52127 0.97383,-1.15479 1.46552,-1.8958 0.49283,-0.74273 0.96367,-1.53389 1.48586,-2.39001 0.51503,-0.84439 1.06297,-1.72352 1.67379,-2.57088 0.61791,-0.85717 1.30289,-1.68631 2.09479,-2.43135 0.80655,-0.75881 1.71263,-1.41915 2.75326,-1.93367 1.0656,-0.52685 2.24253,-0.88585 3.555,-1.05483 a 0.018156,0.25247617 81.282461 0 1 0.1592,-0.0127 c 0.73171,0.0432 1.40631,0.23005 2.01343,0.49374 0.63244,0.27471 1.20549,0.63885 1.71359,1.03242 1.10598,0.85665 2.0029,1.93114 2.64181,2.81643 0.81041,1.12287 1.35293,2.14313 1.6256,2.69847 0.21526,0.43844 0.3392,0.74257 0.39888,0.88806 0.13293,0.32403 0.11607,0.34481 0.11055,0.34766 -0.01,0.005 -0.0249,6.3e-4 -0.23348,-0.27858 -0.0665,-0.0892 -0.31851,-0.41985 -0.58816,-0.76307 -0.353,-0.44932 -1.10646,-1.39789 -2.00944,-2.31123 -0.75306,-0.76169 -1.70131,-1.59854 -2.7621,-2.19285 -0.48291,-0.27056 -0.98107,-0.4853 -1.48408,-0.61742 -0.43004,-0.11293 -0.85573,-0.1632 -1.27581,-0.14126 -1.08244,0.21855 -2.00021,0.58525 -2.79438,1.06101 -0.77806,0.4661 -1.44855,1.04345 -2.04791,1.70658 -0.59194,0.6549 -1.11391,1.39291 -1.60261,2.19284 -0.48623,0.79592 -0.92751,1.63275 -1.37442,2.50002 -0.43762,0.84932 -0.88994,1.74706 -1.36689,2.58804 -0.48197,0.8498 -1.01702,1.69315 -1.64727,2.4525 -0.64044,0.77165 -1.39372,1.4741 -2.31148,2.01463 -0.94248,0.5551 -2.00834,0.90926 -3.21094,1.02271 a 1.4131266,0.43516065 18.630147 0 1 -0.37811,-0.0101 c -1.46665,-0.17147 -2.7518,-0.56507 -3.88665,-1.11777 -1.16939,-0.56954 -2.156981,-1.29815 -2.997363,-2.0846 -0.743243,-0.69555 -1.381235,-1.44533 -1.93559,-2.18317 -0.09936,-0.13227 -0.19707,-0.26539 -0.293638,-0.40002 -0.627375,-0.87473 -1.187226,-1.7806 -1.730841,-2.69233 -0.511347,-0.8576 -1.001702,-1.7088 -1.493817,-2.48727 -0.47593,-0.75286 -0.944926,-1.4244 -1.440751,-1.98954 -0.477646,-0.54441 -0.9652,-0.97314 -1.490276,-1.28103 -0.466947,-0.27382 -1.000238,-0.47406 -1.646382,-0.55758 -0.894548,0.16038 -1.683712,0.43505 -2.396827,0.8005 -0.773441,0.39634 -1.473494,0.9073 -2.130166,1.51823 -0.655961,0.61027 -1.258464,1.3108 -1.841843,2.07842 -0.585138,0.76995 -1.132505,1.5827 -1.689276,2.41773 -0.555325,0.83287 -1.11676,1.68241 -1.70608,2.48022 -0.598441,0.81017 -1.23471,1.57966 -1.945321,2.25006 -0.726819,0.6857 -1.527415,1.26376 -2.436626,1.67667 -0.936242,0.42517 -1.950405,0.65792 -3.062808,0.67946 a 5.3415207e-4,0.08080796 88.858536 0 1 -0.05041,0.002 c -0.733056,-0.041 -1.409447,-0.22499 -2.022267,-0.48715 -0.63873,-0.27324 -1.219265,-0.63655 -1.735265,-1.03064 -1.127473,-0.86108 -2.045278,-1.9447 -2.699747,-2.83622 -0.833799,-1.13582 -1.396956,-2.17211 -1.677337,-2.72798 -0.224778,-0.44564 -0.354334,-0.75352 -0.415242,-0.89818 -0.1389,-0.32986 -0.118565,-0.35062 -0.113209,-0.35338 0.01005,-0.005 0.02652,-0.003 0.236146,0.28472 0.06248,0.0858 0.318893,0.43262 0.587708,0.78421 0.351558,0.4598 1.104657,1.43247 2.020498,2.37811 0.749314,0.77372 1.719705,1.64931 2.804994,2.27207 0.492862,0.28282 1.005263,0.51087 1.52654,0.65439 0.497426,0.13694 0.994943,0.19473 1.489393,0.15534 l -0.05086,0.002 c 0.864522,-0.0855 1.597005,-0.33113 2.241608,-0.69708 0.629951,-0.35763 1.196239,-0.84187 1.731729,-1.43989 0.528352,-0.59005 1.019326,-1.28202 1.511503,-2.06435 0.489975,-0.77885 0.95485,-1.60407 1.464187,-2.49298 0.496941,-0.86729 1.02965,-1.78334 1.619405,-2.67121 0.591123,-0.88993 1.254836,-1.77472 2.029785,-2.58804 0.780841,-0.8195 1.676868,-1.56889 2.729376,-2.1823 1.066204,-0.62138 2.266695,-1.08763 3.627963,-1.35407 a 1.3950746,0.43959278 14.222969 0 1 0.406842,-0.0229 z" />
  </g>
</svg>
